<svg width="14" height="15" viewBox="0 0 14 15" fill="none" xmlns="http://www.w3.org/2000/svg">
<path d="M12.5 3H1.5C0.947715 3 0.5 3.44772 0.5 4V11C0.5 11.5523 0.947715 12 1.5 12H12.5C13.0523 12 13.5 11.5523 13.5 11V4C13.5 3.44772 13.0523 3 12.5 3Z" stroke="#0D1636" stroke-linecap="round" stroke-linejoin="round"/>
<path d="M7 9C7.82843 9 8.5 8.32843 8.5 7.5C8.5 6.67157 7.82843 6 7 6C6.17157 6 5.5 6.67157 5.5 7.5C5.5 8.32843 6.17157 9 7 9Z" stroke="#0D1636" stroke-linecap="round" stroke-linejoin="round"/>
<path d="M3 5.5H3.5" stroke="#0D1636" stroke-linecap="round" stroke-linejoin="round"/>
<path d="M10.5 9.5H11" stroke="#0D1636" stroke-linecap="round" stroke-linejoin="round"/>
</svg>
