<svg width="14" height="15" viewBox="0 0 14 15" fill="none" xmlns="http://www.w3.org/2000/svg">
<path d="M10 2.25H1.5C0.947715 2.25 0.5 2.69772 0.5 3.25V9.25C0.5 9.80228 0.947715 10.25 1.5 10.25H10C10.5523 10.25 11 9.80228 11 9.25V3.25C11 2.69772 10.5523 2.25 10 2.25Z" stroke="#0D1636" stroke-linecap="round" stroke-linejoin="round"/>
<path d="M5.75 7.75C6.57843 7.75 7.25 7.07843 7.25 6.25C7.25 5.42157 6.57843 4.75 5.75 4.75C4.92157 4.75 4.25 5.42157 4.25 6.25C4.25 7.07843 4.92157 7.75 5.75 7.75Z" stroke="#0D1636" stroke-linecap="round" stroke-linejoin="round"/>
<path d="M3.5 12.75H12.5C12.7652 12.75 13.0196 12.6446 13.2071 12.4571C13.3946 12.2696 13.5 12.0152 13.5 11.75V6.75" stroke="#0D1636" stroke-linecap="round" stroke-linejoin="round"/>
</svg>
