<svg width="14" height="15" viewBox="0 0 14 15" fill="none" xmlns="http://www.w3.org/2000/svg">
<g clip-path="url(#clip0_1236_17792)">
<path d="M12.91 5.99999H1.09C0.530004 5.99999 0.290004 5.38999 0.730004 5.09999L6.64 1.22999C6.74912 1.16581 6.87341 1.13196 7 1.13196C7.1266 1.13196 7.25089 1.16581 7.36 1.22999L13.27 5.09999C13.71 5.38999 13.47 5.99999 12.91 5.99999Z" stroke="#0D1636" stroke-linecap="round" stroke-linejoin="round"/>
<path d="M13 11.5H1C0.723858 11.5 0.5 11.7239 0.5 12V13.5C0.5 13.7761 0.723858 14 1 14H13C13.2761 14 13.5 13.7761 13.5 13.5V12C13.5 11.7239 13.2761 11.5 13 11.5Z" stroke="#0D1636" stroke-linecap="round" stroke-linejoin="round"/>
<path d="M2 6V11.5" stroke="#0D1636" stroke-linecap="round" stroke-linejoin="round"/>
<path d="M4.5 6V11.5" stroke="#0D1636" stroke-linecap="round" stroke-linejoin="round"/>
<path d="M7 6V11.5" stroke="#0D1636" stroke-linecap="round" stroke-linejoin="round"/>
<path d="M9.5 6V11.5" stroke="#0D1636" stroke-linecap="round" stroke-linejoin="round"/>
<path d="M12 6V11.5" stroke="#0D1636" stroke-linecap="round" stroke-linejoin="round"/>
</g>
<defs>
<clipPath id="clip0_1236_17792">
<rect width="14" height="14" fill="white" transform="translate(0 0.5)"/>
</clipPath>
</defs>
</svg>
