<svg width="14" height="15" viewBox="0 0 14 15" fill="none" xmlns="http://www.w3.org/2000/svg">
<g clip-path="url(#clip0_1236_17576)">
<path d="M7 10.52V11.53" stroke="#0D1636" stroke-linecap="round" stroke-linejoin="round"/>
<path d="M7 5.51001V6.45001" stroke="#0D1636" stroke-linecap="round" stroke-linejoin="round"/>
<path d="M7 13.99C10.5 13.99 13 12.75 13 9.98997C13 6.98997 11.5 4.98997 8.5 3.48997L9.68 1.96997C9.73995 1.87024 9.77246 1.75644 9.77425 1.64009C9.77604 1.52374 9.74704 1.40899 9.69018 1.30747C9.63333 1.20594 9.55065 1.12125 9.45051 1.06198C9.35038 1.00271 9.23636 0.97097 9.12 0.969971H4.88C4.76364 0.97097 4.64962 1.00271 4.54949 1.06198C4.44935 1.12125 4.36667 1.20594 4.30982 1.30747C4.25296 1.40899 4.22396 1.52374 4.22575 1.64009C4.22754 1.75644 4.26005 1.87024 4.32 1.96997L5.5 3.49997C2.5 5.00997 1 7.00997 1 10.01C1 12.75 3.5 13.99 7 13.99Z" stroke="#0D1636" stroke-linecap="round" stroke-linejoin="round"/>
<path d="M6 10.06C6.12201 10.2048 6.27558 10.3198 6.44893 10.396C6.62227 10.4723 6.81078 10.5079 7 10.5C7.2892 10.5197 7.57479 10.4265 7.79671 10.24C8.01864 10.0535 8.15961 9.78826 8.19 9.49998C8.15961 9.2117 8.01864 8.94643 7.79671 8.75994C7.57479 8.57345 7.2892 8.48026 7 8.49998C6.71079 8.51969 6.42521 8.42651 6.20328 8.24002C5.98136 8.05353 5.84038 7.78826 5.81 7.49998C5.83794 7.21069 5.97824 6.94389 6.20074 6.75691C6.42325 6.56993 6.71022 6.47768 7 6.49998C7.18588 6.4886 7.37198 6.51858 7.54489 6.58774C7.7178 6.65691 7.87323 6.76355 8 6.89998" stroke="#0D1636" stroke-linecap="round" stroke-linejoin="round"/>
</g>
<defs>
<clipPath id="clip0_1236_17576">
<rect width="14" height="14" fill="white" transform="translate(0 0.5)"/>
</clipPath>
</defs>
</svg>
