<svg width="15" height="14" viewBox="0 0 15 14" fill="none" xmlns="http://www.w3.org/2000/svg">
<g clip-path="url(#clip0_1236_2415)">
<path d="M1 8.5H3C3.66304 8.5 4.29893 8.76339 4.76777 9.23223C5.23661 9.70107 5.5 10.337 5.5 11" stroke="#0D1636" stroke-linecap="round" stroke-linejoin="round"/>
<path d="M2.5 11H7.5C8.03043 11 8.53914 11.2107 8.91421 11.5858C9.28929 11.9609 9.5 12.4696 9.5 13C9.5 13.1326 9.44732 13.2598 9.35355 13.3536C9.25979 13.4473 9.13261 13.5 9 13.5H1" stroke="#0D1636" stroke-linecap="round" stroke-linejoin="round"/>
<path d="M9.25 8.5L5.25 4.8C3.07 2.61 6.25 -1.63 9.25 1.8C12.25 -1.62 15.46 2.62 13.25 4.8L9.25 8.5Z" stroke="#0D1636" stroke-linecap="round" stroke-linejoin="round"/>
</g>
<defs>
<clipPath id="clip0_1236_2415">
<rect width="14" height="14" fill="white" transform="translate(0.5)"/>
</clipPath>
</defs>
</svg>
