<svg width="14" height="15" viewBox="0 0 14 15" fill="none" xmlns="http://www.w3.org/2000/svg">
<g clip-path="url(#clip0_1236_17610)">
<path d="M7 5V3.5" stroke="#0D1636" stroke-linecap="round" stroke-linejoin="round"/>
<path d="M5.5 9C5.5 9.75 6.17 10 7 10C7.83 10 8.5 10 8.5 9C8.5 7.5 5.5 7.5 5.5 6C5.5 5 6.17 5 7 5C7.83 5 8.5 5.38 8.5 6" stroke="#0D1636" stroke-linecap="round" stroke-linejoin="round"/>
<path d="M7 10V11.5" stroke="#0D1636" stroke-linecap="round" stroke-linejoin="round"/>
<path d="M7 14C10.5899 14 13.5 11.0899 13.5 7.5C13.5 3.91015 10.5899 1 7 1C3.41015 1 0.5 3.91015 0.5 7.5C0.5 11.0899 3.41015 14 7 14Z" stroke="#0D1636" stroke-linecap="round" stroke-linejoin="round"/>
</g>
<defs>
<clipPath id="clip0_1236_17610">
<rect width="14" height="14" fill="white" transform="translate(0 0.5)"/>
</clipPath>
</defs>
</svg>
