<svg width="14" height="15" viewBox="0 0 14 15" fill="none" xmlns="http://www.w3.org/2000/svg">
<g clip-path="url(#clip0_1236_17600)">
<path d="M9 8C11.4853 8 13.5 7.10457 13.5 6C13.5 4.89543 11.4853 4 9 4C6.51472 4 4.5 4.89543 4.5 6C4.5 7.10457 6.51472 8 9 8Z" stroke="#0D1636" stroke-linecap="round" stroke-linejoin="round"/>
<path d="M4.5 6V12C4.5 13.1 6.5 14 9 14C11.5 14 13.5 13.1 13.5 12V6" stroke="#0D1636" stroke-linecap="round" stroke-linejoin="round"/>
<path d="M13.5 9C13.5 10.1 11.5 11 9 11C6.5 11 4.5 10.1 4.5 9" stroke="#0D1636" stroke-linecap="round" stroke-linejoin="round"/>
<path d="M8.9 1.99999C7.73149 1.27886 6.37133 0.930103 5 0.999987C2.51 0.999987 0.5 1.89999 0.5 2.99999C0.5 3.58999 1.08 4.11999 2 4.49999" stroke="#0D1636" stroke-linecap="round" stroke-linejoin="round"/>
<path d="M2 10.5C1.08 10.12 0.5 9.59 0.5 9V3" stroke="#0D1636" stroke-linecap="round" stroke-linejoin="round"/>
<path d="M2 7.5C1.08 7.12 0.5 6.59 0.5 6" stroke="#0D1636" stroke-linecap="round" stroke-linejoin="round"/>
</g>
<defs>
<clipPath id="clip0_1236_17600">
<rect width="14" height="14" fill="white" transform="translate(0 0.5)"/>
</clipPath>
</defs>
</svg>
