<svg width="14" height="14" viewBox="0 0 14 14" fill="none" xmlns="http://www.w3.org/2000/svg">
<g clip-path="url(#clip0_1236_20689)">
<path d="M4.65 2.23999L4.26 2.32999C4.29532 2.4837 4.29974 2.6429 4.27299 2.79833C4.24624 2.95376 4.18886 3.10232 4.10419 3.23538C4.01951 3.36844 3.90923 3.48334 3.77976 3.5734C3.65029 3.66346 3.5042 3.72689 3.35 3.75999C3.03731 3.82577 2.7113 3.76624 2.44203 3.59421C2.17276 3.42217 1.98173 3.15137 1.91 2.83999L1.13 2.99999C1.02303 3.02333 0.92191 3.06811 0.832736 3.13163C0.743562 3.19515 0.668191 3.27609 0.611176 3.36956C0.554161 3.46302 0.516686 3.56708 0.501016 3.67543C0.485345 3.78379 0.491804 3.8942 0.520002 3.99999C0.520002 3.99999 0.880002 5.66999 1.3 7.54999" stroke="#0D1636" stroke-linecap="round" stroke-linejoin="round"/>
<path d="M12.15 2.22998C12.0902 2.39836 11.9969 2.55285 11.8757 2.68411C11.7545 2.81536 11.6079 2.92064 11.4448 2.99356C11.2816 3.06648 11.1054 3.10553 10.9268 3.10834C10.7481 3.11114 10.5708 3.07766 10.4054 3.0099C10.2401 2.94215 10.0903 2.84153 9.96498 2.71416C9.83969 2.58678 9.74156 2.43529 9.67653 2.26888C9.61151 2.10246 9.58095 1.92457 9.5867 1.74599C9.59246 1.56742 9.63441 1.39187 9.71 1.22998L8.9 0.849977C8.68371 0.75984 8.4406 0.758637 8.22343 0.846629C8.00626 0.934621 7.83255 1.10471 7.74 1.31998L4.38 9.22998L3.94 10.23C3.84987 10.4463 3.84866 10.6894 3.93666 10.9065C4.02465 11.1237 4.19473 11.2974 4.41 11.39L8.47 13.12C8.68629 13.2101 8.92941 13.2113 9.14658 13.1233C9.36375 13.0353 9.53746 12.8652 9.63 12.65L13.43 3.70998C13.5138 3.50209 13.5161 3.27024 13.4363 3.06075C13.3566 2.85127 13.2008 2.67958 13 2.57998L12.15 2.22998Z" stroke="#0D1636" stroke-linecap="round" stroke-linejoin="round"/>
</g>
<defs>
<clipPath id="clip0_1236_20689">
<rect width="14" height="14" fill="white"/>
</clipPath>
</defs>
</svg>
