<svg width="14" height="14" viewBox="0 0 14 14" fill="none" xmlns="http://www.w3.org/2000/svg">
<g clip-path="url(#clip0_1236_20037)">
<path d="M4 0.5H10C10.9283 0.5 11.8185 0.868749 12.4749 1.52513C13.1313 2.1815 13.5 3.07174 13.5 4C13.5 4.26522 13.3946 4.51957 13.2071 4.70711C13.0196 4.89464 12.7652 5 12.5 5H1.5C1.23478 5 0.98043 4.89464 0.792893 4.70711C0.605357 4.51957 0.5 4.26522 0.5 4C0.5 3.07174 0.868749 2.1815 1.52513 1.52513C2.1815 0.868749 3.07174 0.5 4 0.5V0.5Z" stroke="#0D1636" stroke-linecap="round" stroke-linejoin="round"/>
<path d="M0.5 7.5H13.5" stroke="#0D1636" stroke-linecap="round" stroke-linejoin="round"/>
<path d="M13 10H7L5.5 11.5L2.5 10H1C0.867392 10 0.740215 10.0527 0.646447 10.1464C0.552678 10.2402 0.5 10.3674 0.5 10.5V10.5C0.5 11.2956 0.81607 12.0587 1.37868 12.6213C1.94129 13.1839 2.70435 13.5 3.5 13.5H10.5C11.2956 13.5 12.0587 13.1839 12.6213 12.6213C13.1839 12.0587 13.5 11.2956 13.5 10.5C13.5 10.3674 13.4473 10.2402 13.3536 10.1464C13.2598 10.0527 13.1326 10 13 10Z" stroke="#0D1636" stroke-linecap="round" stroke-linejoin="round"/>
</g>
<defs>
<clipPath id="clip0_1236_20037">
<rect width="14" height="14" fill="white"/>
</clipPath>
</defs>
</svg>
