<svg width="14" height="14" viewBox="0 0 14 14" fill="none" xmlns="http://www.w3.org/2000/svg">
<path d="M3.67 0.500018C3.42279 0.498519 3.18378 0.588645 2.99911 0.753003C2.81443 0.917361 2.69719 1.1443 2.67 1.39002C2.56 2.45002 2.5 4.05002 2.5 4.50002C2.5 7.12002 4.5 8.50002 7 8.50002C9.5 8.50002 11.5 7.12002 11.5 4.50002C11.5 4.05002 11.44 2.50002 11.33 1.39002C11.3028 1.1443 11.1856 0.917361 11.0009 0.753003C10.8162 0.588645 10.5772 0.498519 10.33 0.500018H3.67Z" stroke="#0D1636" stroke-linecap="round" stroke-linejoin="round"/>
<path d="M7 8.5V13.5" stroke="#0D1636" stroke-linecap="round" stroke-linejoin="round"/>
<path d="M5 13.5H9" stroke="#0D1636" stroke-linecap="round" stroke-linejoin="round"/>
<path d="M7 0.5L5.5 2.5L7.5 4L6.5 5.5" stroke="#0D1636" stroke-linecap="round" stroke-linejoin="round"/>
</svg>
