<svg width="14" height="14" viewBox="0 0 14 14" fill="none" xmlns="http://www.w3.org/2000/svg">
<path d="M3.5 4H1.5C0.947715 4 0.5 4.44772 0.5 5V9C0.5 9.55228 0.947715 10 1.5 10H3.5C4.05228 10 4.5 9.55228 4.5 9V5C4.5 4.44772 4.05228 4 3.5 4Z" stroke="#000001" stroke-linecap="round" stroke-linejoin="round"/>
<path d="M12.5 4H10.5C9.94772 4 9.5 4.44772 9.5 5V9C9.5 9.55228 9.94772 10 10.5 10H12.5C13.0523 10 13.5 9.55228 13.5 9V5C13.5 4.44772 13.0523 4 12.5 4Z" stroke="#000001" stroke-linecap="round" stroke-linejoin="round"/>
<path d="M4.5 7H9.5" stroke="#000001" stroke-linecap="round" stroke-linejoin="round"/>
</svg>
