<svg width="14" height="15" viewBox="0 0 14 15" fill="none" xmlns="http://www.w3.org/2000/svg">
<g clip-path="url(#clip0_1236_17566)">
<path d="M12 8V6C12 5.73478 11.8946 5.48043 11.7071 5.29289C11.5196 5.10536 11.2652 5 11 5H1.5C1.23478 5 0.98043 5.10536 0.792893 5.29289C0.605357 5.48043 0.5 5.73478 0.5 6V13C0.5 13.2652 0.605357 13.5196 0.792893 13.7071C0.98043 13.8946 1.23478 14 1.5 14H11C11.2652 14 11.5196 13.8946 11.7071 13.7071C11.8946 13.5196 12 13.2652 12 13V10.5" stroke="#0D1636" stroke-linecap="round" stroke-linejoin="round"/>
<path d="M3.84 2.49995L9.51 1.01995C9.57371 1.002 9.6404 0.997142 9.70604 1.00567C9.77169 1.01421 9.83492 1.03595 9.89193 1.0696C9.94893 1.10324 9.99853 1.14808 10.0377 1.20143C10.0769 1.25477 10.1049 1.3155 10.12 1.37995L10.4 2.49995" stroke="#0D1636" stroke-linecap="round" stroke-linejoin="round"/>
<path d="M13 8H10.5C10.2239 8 10 8.22386 10 8.5V10C10 10.2761 10.2239 10.5 10.5 10.5H13C13.2761 10.5 13.5 10.2761 13.5 10V8.5C13.5 8.22386 13.2761 8 13 8Z" stroke="#0D1636" stroke-linecap="round" stroke-linejoin="round"/>
</g>
<defs>
<clipPath id="clip0_1236_17566">
<rect width="14" height="14" fill="white" transform="translate(0 0.5)"/>
</clipPath>
</defs>
</svg>
