<svg width="14" height="15" viewBox="0 0 14 15" fill="none" xmlns="http://www.w3.org/2000/svg">
<g clip-path="url(#clip0_1236_17617)">
<path d="M8.5 1H1.5C1.23478 1 0.98043 1.10536 0.792893 1.29289C0.605357 1.48043 0.5 1.73478 0.5 2V13C0.5 13.2652 0.605357 13.5196 0.792893 13.7071C0.98043 13.8946 1.23478 14 1.5 14H12.5C12.7652 14 13.0196 13.8946 13.2071 13.7071C13.3946 13.5196 13.5 13.2652 13.5 13V6L8.5 1Z" stroke="#0D1636" stroke-linecap="round" stroke-linejoin="round"/>
<path d="M8.5 5.5V1L13.5 6H9C8.86739 6 8.74021 5.94732 8.64645 5.85355C8.55268 5.75979 8.5 5.63261 8.5 5.5Z" stroke="#0D1636" stroke-linecap="round" stroke-linejoin="round"/>
<path d="M4.5 5V3.5" stroke="#0D1636" stroke-linecap="round" stroke-linejoin="round"/>
<path d="M3 9C3 9.75 3.67 10 4.5 10C5.33 10 6 10 6 9C6 7.5 3 7.5 3 6C3 5 3.67 5 4.5 5C5.33 5 6 5.38 6 6" stroke="#0D1636" stroke-linecap="round" stroke-linejoin="round"/>
<path d="M4.5 10V11.5" stroke="#0D1636" stroke-linecap="round" stroke-linejoin="round"/>
<path d="M8.5 10H11.5" stroke="#0D1636" stroke-linecap="round" stroke-linejoin="round"/>
</g>
<defs>
<clipPath id="clip0_1236_17617">
<rect width="14" height="14" fill="white" transform="translate(0 0.5)"/>
</clipPath>
</defs>
</svg>
