<svg width="14" height="14" viewBox="0 0 14 14" fill="none" xmlns="http://www.w3.org/2000/svg">
<g clip-path="url(#clip0_1236_20834)">
<path d="M10.5 8.49995C10.4999 9.33866 10.2889 10.1639 9.88634 10.8996C9.48376 11.6354 8.90256 12.2581 8.19625 12.7104C7.48994 13.1626 6.68121 13.43 5.8445 13.4877C5.00779 13.5455 4.16998 13.3919 3.4082 13.041C2.64642 12.6901 1.98515 12.1533 1.48524 11.4798C0.985338 10.8064 0.662869 10.018 0.547517 9.1873C0.432166 8.35657 0.527638 7.51016 0.825147 6.726C1.12266 5.94184 1.61264 5.24511 2.25 4.69995" stroke="#000001" stroke-linecap="round" stroke-linejoin="round"/>
<path d="M5.28003 6.65002C5.17435 6.86822 5.11964 7.10758 5.12003 7.35002C5.1187 7.55132 5.15737 7.75087 5.23379 7.9371C5.31021 8.12333 5.42285 8.29252 5.56519 8.43486C5.70753 8.5772 5.87673 8.68985 6.06295 8.76627C6.24918 8.84269 6.44874 8.88135 6.65003 8.88002C6.85425 8.88002 7.0501 8.96115 7.1945 9.10555C7.3389 9.24996 7.42003 9.44581 7.42003 9.65002V13.12" stroke="#000001" stroke-linecap="round" stroke-linejoin="round"/>
<path d="M0.569946 9.26993H2.41995C2.62552 9.26459 2.83009 9.30047 3.02157 9.37547C3.21305 9.45047 3.38758 9.56306 3.53484 9.70659C3.68211 9.85013 3.79913 10.0217 3.87901 10.2112C3.9589 10.4007 4.00002 10.6043 3.99995 10.8099V13.2599" stroke="#000001" stroke-linecap="round" stroke-linejoin="round"/>
<path d="M13.2601 1.96987L12.2601 1.62987C12.1898 1.60599 12.1136 1.60577 12.0432 1.62925C11.9728 1.65272 11.912 1.6986 11.8701 1.75987L11.1401 2.88987L7.14006 0.889866C6.82393 0.703554 6.47052 0.589418 6.10513 0.555625C5.73973 0.521832 5.37139 0.569218 5.02644 0.694391C4.6815 0.819565 4.36849 1.01943 4.1098 1.27969C3.85111 1.53995 3.65314 1.85417 3.53006 2.19987C3.49614 2.28955 3.48157 2.38539 3.4873 2.4811C3.49303 2.57681 3.51894 2.67023 3.56333 2.75522C3.60771 2.84021 3.66957 2.91485 3.74483 2.97425C3.8201 3.03365 3.90708 3.07646 4.00006 3.09987L6.61006 3.93987L6.87006 4.02987L7.36006 5.70987C7.3758 5.76836 7.40605 5.82194 7.448 5.86565C7.48995 5.90935 7.54226 5.94175 7.60006 5.95987L8.78006 6.33987C8.84031 6.35949 8.90458 6.36332 8.96672 6.35098C9.02887 6.33864 9.0868 6.31055 9.13498 6.2694C9.18315 6.22825 9.21996 6.17542 9.24186 6.11597C9.26376 6.05652 9.27003 5.99244 9.26006 5.92987L9.00006 4.67987H9.17006L11.7201 5.50987C11.8872 5.56747 12.0703 5.55671 12.2295 5.47991C12.3887 5.40311 12.5111 5.26651 12.5701 5.09987L13.4701 2.32987C13.48 2.25506 13.4647 2.17909 13.4267 2.11392C13.3887 2.04874 13.3301 1.99806 13.2601 1.96987Z" stroke="#000001" stroke-linecap="round" stroke-linejoin="round"/>
</g>
<defs>
<clipPath id="clip0_1236_20834">
<rect width="14" height="14" fill="white"/>
</clipPath>
</defs>
</svg>
