<svg width="20" height="20" viewBox="0 0 20 20" fill="none" xmlns="http://www.w3.org/2000/svg">
<path d="M8.57502 3.21659L1.51668 14.9999C1.37116 15.2519 1.29416 15.5377 1.29334 15.8287C1.29253 16.1197 1.36793 16.4059 1.51204 16.6587C1.65615 16.9115 1.86396 17.1222 2.11477 17.2698C2.36559 17.4174 2.65068 17.4967 2.94168 17.4999H17.0583C17.3494 17.4967 17.6344 17.4174 17.8853 17.2698C18.1361 17.1222 18.3439 16.9115 18.488 16.6587C18.6321 16.4059 18.7075 16.1197 18.7067 15.8287C18.7059 15.5377 18.6289 15.2519 18.4834 14.9999L11.425 3.21659C11.2765 2.97168 11.0673 2.76919 10.8177 2.62866C10.5681 2.48813 10.2865 2.41431 10 2.41431C9.71357 2.41431 9.43196 2.48813 9.18235 2.62866C8.93275 2.76919 8.72358 2.97168 8.57502 3.21659V3.21659Z" stroke="white" stroke-width="1.5" stroke-linecap="round" stroke-linejoin="round"/>
<path d="M10 7.5V10.8333" stroke="white" stroke-width="1.5" stroke-linecap="round" stroke-linejoin="round"/>
<path d="M10 14.1666H10.0083" stroke="white" stroke-width="1.5" stroke-linecap="round" stroke-linejoin="round"/>
</svg>
