<svg width="25" height="25" viewBox="0 0 25 25" fill="none" xmlns="http://www.w3.org/2000/svg">
<path d="M12.5 16.6667C14.2259 16.6667 15.625 15.2676 15.625 13.5417C15.625 11.8159 14.2259 10.4167 12.5 10.4167C10.7741 10.4167 9.375 11.8159 9.375 13.5417C9.375 15.2676 10.7741 16.6667 12.5 16.6667Z" stroke="#FBF9FF" stroke-width="1.5" stroke-linecap="round" stroke-linejoin="round"/>
<path d="M12.5 4.16675H10.4167C10.1404 4.16675 9.87545 4.27649 9.6801 4.47185C9.48475 4.6672 9.375 4.93215 9.375 5.20841C9.375 5.76095 9.15551 6.29085 8.76481 6.68155C8.3741 7.07225 7.8442 7.29175 7.29167 7.29175H5.20833C4.6558 7.29175 4.12589 7.51124 3.73519 7.90194C3.34449 8.29264 3.125 8.82255 3.125 9.37508V18.7501C3.125 19.3026 3.34449 19.8325 3.73519 20.2232C4.12589 20.6139 4.6558 20.8334 5.20833 20.8334H19.7917C20.3442 20.8334 20.8741 20.6139 21.2648 20.2232C21.6555 19.8325 21.875 19.3026 21.875 18.7501V11.4584" stroke="#FBF9FF" stroke-width="1.5" stroke-linecap="round" stroke-linejoin="round"/>
<path d="M15.625 6.25H21.875" stroke="#FBF9FF" stroke-width="1.5" stroke-linecap="round" stroke-linejoin="round"/>
<path d="M18.75 3.125V9.375" stroke="#FBF9FF" stroke-width="1.5" stroke-linecap="round" stroke-linejoin="round"/>
</svg>
