<svg width="180" height="265" viewBox="0 0 180 265" fill="none" xmlns="http://www.w3.org/2000/svg">
<g clip-path="url(#clip0_1_790)">
<path d="M63.3 41.4648H18.3V131.397H63.3V41.4648Z" fill="url(#paint0_linear_1_790)"/>
<path d="M155.7 -0.503418H133.2V59.4513H155.7V-0.503418Z" fill="url(#paint1_linear_1_790)"/>
<path d="M79.5 -5H64.5V35.1697H79.5V-5Z" fill="url(#paint2_linear_1_790)"/>
<path d="M168.75 112.661H11.25C5.1 112.661 0 117.757 0 123.903V135.144H180V123.903C180 117.757 174.9 112.661 168.75 112.661Z" fill="url(#paint3_linear_1_790)"/>
<path d="M168.75 112.661H11.25C5.1 112.661 0 117.757 0 123.903V135.144H180V123.903C180 117.757 174.9 112.661 168.75 112.661Z" fill="url(#paint4_linear_1_790)"/>
<path d="M106.05 124.952L103.8 112.811H79.5L66 116.408C66 116.258 66.15 115.959 66 115.809C65.55 114.909 64.95 113.86 64.35 112.811H56.4C56.55 112.961 56.55 113.111 56.7 113.261C54.6 113.261 52.65 113.111 51 112.811H32.4C34.8 117.757 44.1 119.556 52.8 120.006L38.4 123.903L27.3 126.9C25.65 127.35 24.75 129.149 25.35 130.648L27 135.294H103.05L101.55 126.151L106.05 124.952Z" fill="url(#paint5_linear_1_790)"/>
<path d="M180 135.144H0V157.627H180V135.144Z" fill="url(#paint6_linear_1_790)"/>
<path d="M61.0501 80.8852C52.6501 83.1335 52.6501 103.818 52.9501 112.661C52.9501 113.71 53.5501 114.61 54.4501 115.059C55.2001 115.509 55.9501 115.509 56.7001 115.359C56.8501 115.359 57.1501 115.209 57.3001 115.059C65.1001 111.012 83.1001 100.52 80.8501 92.1267C78.4501 83.7331 69.6001 78.6369 61.0501 80.8852ZM61.6501 94.0753C64.8001 93.1759 68.1001 95.1245 69.0001 98.1222C68.7001 99.4712 64.8001 102.769 59.8501 105.916C60.0001 99.9209 60.7501 94.9746 61.6501 94.0753Z" fill="url(#paint7_linear_1_790)"/>
<path d="M58.5001 111.162C54.4501 103.368 43.9501 85.3816 35.5501 87.6299C27.0001 89.8782 21.9001 98.7216 24.1501 107.265C26.4001 115.659 47.1001 115.659 55.9501 115.359C56.1001 115.359 56.4001 115.359 56.5501 115.209C57.3001 115.059 57.9001 114.46 58.3501 113.86C58.9501 113.111 58.9501 112.062 58.5001 111.162ZM37.5001 106.815C36.6001 103.668 38.5501 100.37 41.5501 99.471C42.9001 99.7708 46.2001 103.668 49.3501 108.614C43.3501 108.464 38.2501 107.715 37.5001 106.815Z" fill="url(#paint8_linear_1_790)"/>
<path d="M90.9 103.218L21 121.954L41.4 176.513C42 177.862 43.5 178.761 44.85 178.312L98.4 163.922C99.9 163.473 100.8 162.124 100.5 160.625L90.9 103.218Z" fill="url(#paint9_linear_1_790)"/>
<path d="M17.7001 126.001L22.9501 140.69L98.55 120.455L95.7001 105.167C95.4001 103.518 93.7501 102.469 92.1001 102.918L19.8001 122.254C18.1501 122.703 17.2501 124.352 17.7001 126.001Z" fill="url(#paint10_linear_1_790)"/>
<path d="M94.5 124.352L94.05 121.654L27.45 139.491L28.5 142.039L94.5 124.352Z" fill="url(#paint11_linear_1_790)"/>
<path d="M47.4 114.76C46.2 110.113 48.9 105.317 53.55 103.968C58.2 102.769 63 105.467 64.35 110.113L47.4 114.76Z" fill="url(#paint12_linear_1_790)"/>
<path d="M64.3501 110.263L47.4001 114.76L63.1501 173.366L80.1001 168.869L64.3501 110.263Z" fill="url(#paint13_linear_1_790)"/>
<path d="M0 213.835C0 219.98 5.1 225.077 11.25 225.077H168.75C174.9 225.077 180 219.98 180 213.835V157.627H0V213.835Z" fill="url(#paint14_linear_1_790)"/>
<path d="M0 213.835C0 219.98 5.1 225.077 11.25 225.077H168.75C174.9 225.077 180 219.98 180 213.835V157.627H0V213.835Z" fill="url(#paint15_linear_1_790)"/>
<path d="M154.65 207.54C159.289 207.54 163.05 203.782 163.05 199.146C163.05 194.51 159.289 190.752 154.65 190.752C150.011 190.752 146.25 194.51 146.25 199.146C146.25 203.782 150.011 207.54 154.65 207.54Z" fill="url(#paint16_linear_1_790)"/>
<path d="M137.85 207.54C142.489 207.54 146.25 203.782 146.25 199.146C146.25 194.51 142.489 190.752 137.85 190.752C133.211 190.752 129.45 194.51 129.45 199.146C129.45 203.782 133.211 207.54 137.85 207.54Z" fill="white"/>
<path d="M29.1 206.941C28.05 207.241 26.1 207.84 24 207.84C21.3 207.84 19.2 207.091 17.85 205.892C16.5 204.543 15.75 202.594 15.75 200.346C15.75 195.4 19.5 192.402 24.45 192.402C26.4 192.402 27.9 192.852 28.65 193.151L27.9 195.849C27 195.4 26.1 195.25 24.45 195.25C21.6 195.25 19.5 196.898 19.5 200.196C19.5 203.344 21.45 205.142 24.3 205.142C25.05 205.142 25.65 204.992 25.95 204.992V201.845H23.55V198.847H29.25V206.941H29.1Z" fill="white"/>
<path d="M33.4501 195.25C32.4001 195.25 31.6501 194.5 31.6501 193.601C31.6501 192.702 32.4001 191.952 33.4501 191.952C34.5001 191.952 35.2501 192.702 35.2501 193.601C35.2501 194.5 34.5001 195.25 33.4501 195.25ZM31.6501 207.54V196.599H35.1001V207.54H31.6501Z" fill="white"/>
<path d="M38.25 207.54V199.146H36.75V196.598H38.25V196.148C38.25 194.799 38.7 193.301 39.6 192.401C40.5 191.652 41.7 191.352 42.6 191.352C43.35 191.352 43.95 191.502 44.4 191.502L44.25 194.05C43.95 193.9 43.65 193.9 43.2 193.9C42.15 193.9 41.55 194.799 41.55 195.849V196.448H43.8V198.996H41.55V207.39H38.25V207.54Z" fill="white"/>
<path d="M49.6499 193.601V196.598H52.0499V199.146H49.6499V203.043C49.6499 204.392 49.9499 204.992 50.9999 204.992C51.4499 204.992 51.7499 204.992 52.0499 204.842V207.39C51.5999 207.54 50.8499 207.69 49.7999 207.69C48.7499 207.69 47.8499 207.24 47.2499 206.791C46.6499 206.191 46.3499 205.142 46.3499 203.493V198.997H44.8499V196.448H46.3499V194.35L49.6499 193.601Z" fill="white"/>
<path d="M69.6 207.091C68.85 207.39 67.5 207.84 65.55 207.84C61.35 207.84 58.05 205.142 58.05 200.196C58.05 195.4 61.2 192.252 66 192.252C67.95 192.252 69.15 192.702 69.6 192.851L69.15 194.5C68.4 194.2 67.35 193.901 66.15 193.901C62.55 193.901 60.3 196.149 60.3 200.196C60.3 203.943 62.4 206.341 66.15 206.341C67.35 206.341 68.55 206.042 69.3 205.742L69.6 207.091Z" fill="white"/>
<path d="M77.8499 207.54L77.6999 206.191C77.0999 207.09 75.8999 207.84 74.3999 207.84C72.1499 207.84 71.0999 206.341 71.0999 204.692C71.0999 202.144 73.4999 200.645 77.6999 200.645V200.495C77.6999 199.596 77.3999 197.947 75.2999 197.947C74.2499 197.947 73.1999 198.247 72.4499 198.697L71.9999 197.348C72.8999 196.748 74.2499 196.448 75.5999 196.448C78.8999 196.448 79.7999 198.697 79.7999 200.945V204.992C79.7999 205.891 79.7999 206.79 79.9499 207.54H77.8499ZM77.5499 201.994C75.4499 201.994 72.8999 202.294 72.8999 204.392C72.8999 205.591 73.7999 206.341 74.6999 206.341C76.0499 206.341 76.9499 205.441 77.2499 204.542C77.2499 204.392 77.3999 204.092 77.3999 203.943V201.994H77.5499Z" fill="white"/>
<path d="M82.65 200.046C82.65 198.846 82.65 197.647 82.5 196.598H84.3V198.697H84.45C84.9 197.198 86.1 196.298 87.45 196.298C87.75 196.298 87.9 196.298 88.05 196.298V198.097C87.9 198.097 87.6 198.097 87.45 198.097C86.1 198.097 85.05 199.146 84.75 200.645C84.75 200.945 84.6 201.245 84.6 201.544V207.39H82.65V200.046V200.046Z" fill="white"/>
<path d="M99.15 191.652V204.842C99.15 205.741 99.15 206.94 99.3 207.69H97.5L97.35 205.741C96.75 206.94 95.4 207.84 93.6 207.84C91.05 207.84 88.95 205.591 88.95 202.294C88.95 198.697 91.2 196.448 93.75 196.448C95.4 196.448 96.6 197.198 97.05 198.097V191.652H99.15ZM97.2 201.095C97.2 200.795 97.2 200.495 97.05 200.195C96.75 198.996 95.7 197.947 94.2 197.947C92.1 197.947 90.9 199.746 90.9 202.144C90.9 204.392 91.95 206.191 94.05 206.191C95.4 206.191 96.6 205.292 96.9 203.793C96.9 203.493 97.05 203.193 97.05 202.893V201.095H97.2Z" fill="white"/>
<path d="M61.0501 80.8852C52.6501 83.1335 52.6501 103.818 52.9501 112.661C52.9501 113.71 53.5501 114.61 54.4501 115.059C55.2001 115.509 55.9501 115.509 56.7001 115.359C56.8501 115.359 57.1501 115.209 57.3001 115.059C65.1001 111.012 83.1001 100.52 80.8501 92.1267C78.4501 83.7331 69.6001 78.6369 61.0501 80.8852ZM61.6501 94.0753C64.8001 93.1759 68.1001 95.1245 69.0001 98.1222C68.7001 99.4712 64.8001 102.769 59.8501 105.916C60.0001 99.9209 60.7501 94.9746 61.6501 94.0753Z" fill="url(#paint17_linear_1_790)"/>
<path d="M61.0501 80.8852C52.6501 83.1335 52.6501 103.818 52.9501 112.661C52.9501 113.71 53.5501 114.61 54.4501 115.059C55.2001 115.509 55.9501 115.509 56.7001 115.359C56.8501 115.359 57.1501 115.209 57.3001 115.059C65.1001 111.012 83.1001 100.52 80.8501 92.1267C78.4501 83.7331 69.6001 78.6369 61.0501 80.8852ZM61.6501 94.0753C64.8001 93.1759 68.1001 95.1245 69.0001 98.1222C68.7001 99.4712 64.8001 102.769 59.8501 105.916C60.0001 99.9209 60.7501 94.9746 61.6501 94.0753Z" fill="url(#paint18_linear_1_790)"/>
<path d="M58.5001 111.162C54.4501 103.368 43.9501 85.3816 35.5501 87.6299C27.0001 89.8782 21.9001 98.7216 24.1501 107.265C26.4001 115.659 47.1001 115.659 55.9501 115.359C56.1001 115.359 56.4001 115.359 56.5501 115.209C57.3001 115.059 57.9001 114.46 58.3501 113.86C58.9501 113.111 58.9501 112.062 58.5001 111.162ZM37.5001 106.815C36.6001 103.668 38.5501 100.37 41.5501 99.471C42.9001 99.7708 46.2001 103.668 49.3501 108.614C43.3501 108.464 38.2501 107.715 37.5001 106.815Z" fill="url(#paint19_linear_1_790)"/>
<path d="M58.5001 111.162C54.4501 103.368 43.9501 85.3816 35.5501 87.6299C27.0001 89.8782 21.9001 98.7216 24.1501 107.265C26.4001 115.659 47.1001 115.659 55.9501 115.359C56.1001 115.359 56.4001 115.359 56.5501 115.209C57.3001 115.059 57.9001 114.46 58.3501 113.86C58.9501 113.111 58.9501 112.062 58.5001 111.162ZM37.5001 106.815C36.6001 103.668 38.5501 100.37 41.5501 99.471C42.9001 99.7708 46.2001 103.668 49.3501 108.614C43.3501 108.464 38.2501 107.715 37.5001 106.815Z" fill="url(#paint20_linear_1_790)"/>
<path d="M90.9 103.218L21 121.954L41.4 176.513C42 177.862 43.5 178.761 44.85 178.312L98.4 163.922C99.9 163.473 100.8 162.124 100.5 160.625L90.9 103.218Z" fill="url(#paint21_linear_1_790)"/>
<path d="M17.7001 126.001L22.9501 140.69L98.55 120.455L95.7001 105.167C95.4001 103.518 93.7501 102.469 92.1001 102.918L19.8001 122.254C18.1501 122.703 17.2501 124.352 17.7001 126.001Z" fill="url(#paint22_linear_1_790)"/>
<path d="M95.55 130.797L94.05 121.654L27.45 139.491L30.75 148.184L95.55 130.797Z" fill="url(#paint23_linear_1_790)"/>
<path d="M47.4 114.76C46.2 110.113 48.9 105.317 53.55 103.968C58.2 102.769 63 105.467 64.35 110.113L47.4 114.76Z" fill="url(#paint24_linear_1_790)"/>
<path d="M47.4 114.76C46.2 110.113 48.9 105.317 53.55 103.968C58.2 102.769 63 105.467 64.35 110.113L47.4 114.76Z" fill="url(#paint25_linear_1_790)"/>
<path d="M64.3501 110.263L47.4001 114.76L63.1501 173.366L80.1001 168.869L64.3501 110.263Z" fill="url(#paint26_linear_1_790)"/>
<path d="M64.3501 110.263L47.4001 114.76L63.1501 173.366L80.1001 168.869L64.3501 110.263Z" fill="url(#paint27_linear_1_790)"/>
<path d="M140.55 27.8253C133.65 26.0267 124.95 40.8655 121.5 47.4605C121.05 48.2099 121.2 49.1093 121.5 49.8587C121.8 50.4582 122.4 50.758 123 51.0578C123.15 51.0578 123.3 51.0578 123.6 51.2077C130.95 51.5074 148.2 51.5074 150.15 44.4628C151.95 37.1183 147.75 29.7738 140.55 27.8253ZM135.6 37.7179C138.3 38.4673 139.8 41.1653 139.2 43.5634C138.45 44.4628 134.25 45.2122 129.3 45.3621C131.85 41.1652 134.55 37.8677 135.6 37.7179Z" fill="url(#paint28_linear_1_790)"/>
<path d="M126.15 48.6597C126.45 41.3152 126.45 24.0783 119.4 22.1297C112.2 20.1812 104.85 24.5279 102.9 31.5726C101.1 38.6173 115.95 47.1608 122.55 50.6082C122.7 50.7581 122.85 50.7581 123 50.7581C123.6 50.908 124.35 50.908 124.8 50.4583C125.7 50.3085 126.15 49.559 126.15 48.6597ZM112.8 36.6688C113.55 33.9708 116.25 32.4719 118.8 33.0715C119.7 33.8209 120.45 38.0177 120.6 42.964C116.4 40.4159 112.95 37.718 112.8 36.6688Z" fill="url(#paint29_linear_1_790)"/>
<path d="M152.85 56.3041L94.5 40.7158L86.55 88.6796C86.4 89.8787 87.15 91.0778 88.35 91.3776L132.9 103.369C134.1 103.668 135.45 103.069 135.75 101.87L152.85 56.3041Z" fill="url(#paint30_linear_1_790)"/>
<path d="M90.6 42.3643L88.2 55.1047L151.2 71.8921L155.55 59.7512C156 58.4022 155.25 56.9034 153.9 56.6036L93.6 40.5657C92.25 40.116 90.75 41.0154 90.6 42.3643Z" fill="url(#paint31_linear_1_790)"/>
<path d="M146.55 73.0915L147.45 70.9931L91.9499 56.1543L91.6499 58.4026L146.55 73.0915Z" fill="url(#paint32_linear_1_790)"/>
<path d="M116.7 46.711C117.75 42.814 121.8 40.5657 125.7 41.6149C129.6 42.6641 131.85 46.711 130.8 50.6081L116.7 46.711Z" fill="url(#paint33_linear_1_790)"/>
<path d="M130.8 50.4581L116.7 46.7109L103.5 95.5741L117.6 99.3212L130.8 50.4581Z" fill="url(#paint34_linear_1_790)"/>
<path d="M60.9001 15.3847C56.7001 16.4339 56.7001 26.926 56.8501 31.2727C56.8501 31.7224 57.1501 32.172 57.6001 32.4718C57.9001 32.6217 58.3501 32.7716 58.6501 32.6217C58.8001 32.6217 58.8001 32.6217 58.9501 32.4718C62.8501 30.3734 71.8501 25.2772 70.6501 21.0804C69.6001 16.7337 65.1001 14.1856 60.9001 15.3847ZM61.2001 21.9797C62.8501 21.53 64.5001 22.4294 64.8001 23.9282C64.6501 24.6777 62.7001 26.3264 60.1501 27.8253C60.3001 24.8276 60.7501 22.2795 61.2001 21.9797Z" fill="url(#paint35_linear_1_790)"/>
<path d="M60.9001 15.3847C56.7001 16.4339 56.7001 26.926 56.8501 31.2727C56.8501 31.7224 57.1501 32.172 57.6001 32.4718C57.9001 32.6217 58.3501 32.7716 58.6501 32.6217C58.8001 32.6217 58.8001 32.6217 58.9501 32.4718C62.8501 30.3734 71.8501 25.2772 70.6501 21.0804C69.6001 16.7337 65.1001 14.1856 60.9001 15.3847ZM61.2001 21.9797C62.8501 21.53 64.5001 22.4294 64.8001 23.9282C64.6501 24.6777 62.7001 26.3264 60.1501 27.8253C60.3001 24.8276 60.7501 22.2795 61.2001 21.9797Z" fill="url(#paint36_linear_1_790)"/>
<path d="M59.55 30.5235C57.45 26.6264 52.35 17.6332 48.15 18.8323C43.8 20.0314 41.25 24.3781 42.45 28.7248C43.5 32.9216 54 32.9216 58.35 32.7718C58.5 32.7718 58.5 32.7718 58.65 32.7718C58.95 32.6219 59.4 32.472 59.55 32.0223C59.85 31.4228 59.85 30.9731 59.55 30.5235ZM49.05 28.2752C48.6 26.6264 49.5 24.9776 51 24.6779C51.75 24.8278 53.4 26.7763 54.9 29.3244C52.05 29.1745 49.5 28.7248 49.05 28.2752Z" fill="url(#paint37_linear_1_790)"/>
<path d="M59.55 30.5235C57.45 26.6264 52.35 17.6332 48.15 18.8323C43.8 20.0314 41.25 24.3781 42.45 28.7248C43.5 32.9216 54 32.9216 58.35 32.7718C58.5 32.7718 58.5 32.7718 58.65 32.7718C58.95 32.6219 59.4 32.472 59.55 32.0223C59.85 31.4228 59.85 30.9731 59.55 30.5235ZM49.05 28.2752C48.6 26.6264 49.5 24.9776 51 24.6779C51.75 24.8278 53.4 26.7763 54.9 29.3244C52.05 29.1745 49.5 28.7248 49.05 28.2752Z" fill="url(#paint38_linear_1_790)"/>
<path d="M62.5501 30.0737L54.0001 32.322L61.9501 61.55L70.3501 59.3017L62.5501 30.0737Z" fill="url(#paint39_linear_1_790)"/>
<path d="M62.5501 30.0737L54.0001 32.322L61.9501 61.55L70.3501 59.3017L62.5501 30.0737Z" fill="url(#paint40_linear_1_790)"/>
<path d="M75.75 26.4761L40.8 35.7691L51 63.1984C51.3 63.9478 52.05 64.2476 52.8 64.0977L79.5 56.9031C80.25 56.7532 80.7 56.0038 80.55 55.2544L75.75 26.4761Z" fill="url(#paint41_linear_1_790)"/>
<path d="M39.15 37.8675L41.7 45.212L79.5 35.1696L78.15 27.5254C78 26.626 77.1 26.1764 76.35 26.3263L40.2 36.0689C39.3 36.2188 38.85 37.1181 39.15 37.8675Z" fill="url(#paint42_linear_1_790)"/>
<path d="M77.5501 36.9686L77.2501 35.7695L44.1001 44.6129L44.5501 45.812L77.5501 36.9686Z" fill="url(#paint43_linear_1_790)"/>
<path d="M54.0001 32.3219C53.4001 29.9237 54.7501 27.5255 57.1501 26.926C59.5501 26.3265 61.9501 27.6754 62.5501 30.0736L54.0001 32.3219Z" fill="url(#paint44_linear_1_790)"/>
<path d="M54.0001 32.3219C53.4001 29.9237 54.7501 27.5255 57.1501 26.926C59.5501 26.3265 61.9501 27.6754 62.5501 30.0736L54.0001 32.3219Z" fill="url(#paint45_linear_1_790)"/>
<path d="M62.5501 30.0737L54.0001 32.322L61.9501 61.55L70.3501 59.3017L62.5501 30.0737Z" fill="url(#paint46_linear_1_790)"/>
<path d="M62.5501 30.0737L54.0001 32.322L61.9501 61.55L70.3501 59.3017L62.5501 30.0737Z" fill="url(#paint47_linear_1_790)"/>
</g>
<defs>
<linearGradient id="paint0_linear_1_790" x1="7.03242" y1="120.211" x2="74.4768" y2="52.7156" gradientUnits="userSpaceOnUse">
<stop stop-color="#FADBAC"/>
<stop offset="0.75" stop-color="white"/>
</linearGradient>
<linearGradient id="paint1_linear_1_790" x1="123.783" y1="8.92147" x2="164.993" y2="50.1625" gradientUnits="userSpaceOnUse">
<stop offset="0.25" stop-color="white"/>
<stop offset="1" stop-color="#FADBAC"/>
</linearGradient>
<linearGradient id="paint2_linear_1_790" x1="58.2618" y1="1.26857" x2="85.8245" y2="28.8521" gradientUnits="userSpaceOnUse">
<stop offset="0.25" stop-color="white"/>
<stop offset="1" stop-color="#FADBAC"/>
</linearGradient>
<linearGradient id="paint3_linear_1_790" x1="0" y1="123.96" x2="180" y2="123.96" gradientUnits="userSpaceOnUse">
<stop stop-color="#99BAED"/>
<stop offset="1" stop-color="#3F81D9"/>
</linearGradient>
<linearGradient id="paint4_linear_1_790" x1="90" y1="112.661" x2="90" y2="135.144" gradientUnits="userSpaceOnUse">
<stop stop-color="#44BBFE"/>
<stop offset="1" stop-color="#1E78FE"/>
</linearGradient>
<linearGradient id="paint5_linear_1_790" x1="46.1866" y1="101.119" x2="86.4307" y2="149.116" gradientUnits="userSpaceOnUse">
<stop stop-color="#6F9EE6"/>
<stop offset="1" stop-color="#337AD7"/>
</linearGradient>
<linearGradient id="paint6_linear_1_790" x1="0" y1="146.38" x2="180" y2="146.38" gradientUnits="userSpaceOnUse">
<stop stop-color="#DFEFFF"/>
<stop offset="1" stop-color="#8AC5FF"/>
</linearGradient>
<linearGradient id="paint7_linear_1_790" x1="52.3748" y1="92.1385" x2="75.3646" y2="105.422" gradientUnits="userSpaceOnUse">
<stop stop-color="#C1D5F4"/>
<stop offset="1" stop-color="#3F81D9"/>
</linearGradient>
<linearGradient id="paint8_linear_1_790" x1="25.8622" y1="95.1818" x2="58.4484" y2="114.011" gradientUnits="userSpaceOnUse">
<stop stop-color="#C1D5F4"/>
<stop offset="1" stop-color="#3F81D9"/>
</linearGradient>
<linearGradient id="paint9_linear_1_790" x1="24.2975" y1="116.073" x2="101.346" y2="160.591" gradientUnits="userSpaceOnUse">
<stop stop-color="#FADBAC"/>
<stop offset="0.1738" stop-color="#FAD9A8"/>
<stop offset="0.354" stop-color="#F9D49B"/>
<stop offset="0.537" stop-color="#F8CC87"/>
<stop offset="0.7221" stop-color="#F6C16A"/>
<stop offset="0.907" stop-color="#F4B245"/>
<stop offset="1" stop-color="#F3AA2F"/>
</linearGradient>
<linearGradient id="paint10_linear_1_790" x1="28.8771" y1="104.714" x2="87.8908" y2="138.812" gradientUnits="userSpaceOnUse">
<stop stop-color="#FADBAC"/>
<stop offset="0.1814" stop-color="#FAD9A8"/>
<stop offset="0.3695" stop-color="#F9D49B"/>
<stop offset="0.5605" stop-color="#F8CC87"/>
<stop offset="0.7537" stop-color="#F7C16A"/>
<stop offset="0.9467" stop-color="#F5B345"/>
<stop offset="1" stop-color="#F4AE39"/>
</linearGradient>
<linearGradient id="paint11_linear_1_790" x1="27.8529" y1="140.734" x2="94.3409" y2="122.906" gradientUnits="userSpaceOnUse">
<stop stop-color="#F7C374"/>
<stop offset="1" stop-color="#F3A31F"/>
</linearGradient>
<linearGradient id="paint12_linear_1_790" x1="46.3036" y1="110.556" x2="63.2639" y2="106.009" gradientUnits="userSpaceOnUse">
<stop stop-color="#C1D5F4"/>
<stop offset="1" stop-color="#3F81D9"/>
</linearGradient>
<linearGradient id="paint13_linear_1_790" x1="39.8097" y1="128" x2="87.7339" y2="155.691" gradientUnits="userSpaceOnUse">
<stop stop-color="#C1D5F4"/>
<stop offset="1" stop-color="#2E76D6"/>
</linearGradient>
<linearGradient id="paint14_linear_1_790" x1="0" y1="191.41" x2="180" y2="191.41" gradientUnits="userSpaceOnUse">
<stop stop-color="#99BAED"/>
<stop offset="1" stop-color="#3F81D9"/>
</linearGradient>
<linearGradient id="paint15_linear_1_790" x1="90" y1="157.627" x2="90" y2="225.077" gradientUnits="userSpaceOnUse">
<stop stop-color="#44BBFE"/>
<stop offset="1" stop-color="#1E78FE"/>
</linearGradient>
<linearGradient id="paint16_linear_1_790" x1="146.25" y1="199.116" x2="163.125" y2="199.116" gradientUnits="userSpaceOnUse">
<stop stop-color="#D1E0F7"/>
<stop offset="1" stop-color="#BAD2F1"/>
</linearGradient>
<linearGradient id="paint17_linear_1_790" x1="52.3748" y1="92.1343" x2="75.3646" y2="105.418" gradientUnits="userSpaceOnUse">
<stop stop-color="#C1D5F4"/>
<stop offset="1" stop-color="#3F81D9"/>
</linearGradient>
<linearGradient id="paint18_linear_1_790" x1="66.9528" y1="80.3535" x2="66.9528" y2="115.449" gradientUnits="userSpaceOnUse">
<stop stop-color="#44BBFE"/>
<stop offset="1" stop-color="#1E78FE"/>
</linearGradient>
<linearGradient id="paint19_linear_1_790" x1="25.8623" y1="95.1777" x2="58.4484" y2="114.006" gradientUnits="userSpaceOnUse">
<stop stop-color="#C1D5F4"/>
<stop offset="1" stop-color="#3F81D9"/>
</linearGradient>
<linearGradient id="paint20_linear_1_790" x1="41.2197" y1="87.437" x2="41.2197" y2="115.447" gradientUnits="userSpaceOnUse">
<stop stop-color="#44BBFE"/>
<stop offset="1" stop-color="#1E78FE"/>
</linearGradient>
<linearGradient id="paint21_linear_1_790" x1="24.2975" y1="116.069" x2="101.346" y2="160.587" gradientUnits="userSpaceOnUse">
<stop stop-color="#FAD59E"/>
<stop offset="1" stop-color="#F3A31F"/>
</linearGradient>
<linearGradient id="paint22_linear_1_790" x1="28.8771" y1="104.71" x2="87.8908" y2="138.808" gradientUnits="userSpaceOnUse">
<stop stop-color="#FADBAC"/>
<stop offset="0.1814" stop-color="#FAD9A8"/>
<stop offset="0.3695" stop-color="#F9D49B"/>
<stop offset="0.5605" stop-color="#F8CC87"/>
<stop offset="0.7537" stop-color="#F7C16A"/>
<stop offset="0.9467" stop-color="#F5B345"/>
<stop offset="1" stop-color="#F4AE39"/>
</linearGradient>
<linearGradient id="paint23_linear_1_790" x1="28.7108" y1="143.929" x2="95.1987" y2="126.101" gradientUnits="userSpaceOnUse">
<stop stop-color="#F7C374"/>
<stop offset="1" stop-color="#F3A31F"/>
</linearGradient>
<linearGradient id="paint24_linear_1_790" x1="46.3038" y1="110.552" x2="63.2639" y2="106.005" gradientUnits="userSpaceOnUse">
<stop stop-color="#C1D5F4"/>
<stop offset="1" stop-color="#3F81D9"/>
</linearGradient>
<linearGradient id="paint25_linear_1_790" x1="55.7328" y1="103.684" x2="55.7328" y2="114.76" gradientUnits="userSpaceOnUse">
<stop stop-color="#44BBFE"/>
<stop offset="1" stop-color="#1E78FE"/>
</linearGradient>
<linearGradient id="paint26_linear_1_790" x1="39.8098" y1="127.996" x2="87.7339" y2="155.687" gradientUnits="userSpaceOnUse">
<stop stop-color="#AEC7F1"/>
<stop offset="1" stop-color="#1868D2"/>
</linearGradient>
<linearGradient id="paint27_linear_1_790" x1="63.7501" y1="110.263" x2="63.7501" y2="173.366" gradientUnits="userSpaceOnUse">
<stop stop-color="#44BBFE"/>
<stop offset="1" stop-color="#1E78FE"/>
</linearGradient>
<linearGradient id="paint28_linear_1_790" x1="129.642" y1="32.3797" x2="140.695" y2="51.5371" gradientUnits="userSpaceOnUse">
<stop stop-color="#C1D5F4"/>
<stop offset="1" stop-color="#3F81D9"/>
</linearGradient>
<linearGradient id="paint29_linear_1_790" x1="109.238" y1="23.5391" x2="124.906" y2="50.6936" gradientUnits="userSpaceOnUse">
<stop stop-color="#C1D5F4"/>
<stop offset="1" stop-color="#3F81D9"/>
</linearGradient>
<linearGradient id="paint30_linear_1_790" x1="99.4009" y1="37.9673" x2="136.444" y2="102.174" gradientUnits="userSpaceOnUse">
<stop stop-color="#FADBAC"/>
<stop offset="0.1738" stop-color="#FAD9A8"/>
<stop offset="0.354" stop-color="#F9D49B"/>
<stop offset="0.537" stop-color="#F8CC87"/>
<stop offset="0.7221" stop-color="#F6C16A"/>
<stop offset="0.907" stop-color="#F4B245"/>
<stop offset="1" stop-color="#F3AA2F"/>
</linearGradient>
<linearGradient id="paint31_linear_1_790" x1="107.442" y1="31.6762" x2="135.814" y2="80.8542" gradientUnits="userSpaceOnUse">
<stop stop-color="#FADBAC"/>
<stop offset="0.1814" stop-color="#FAD9A8"/>
<stop offset="0.3695" stop-color="#F9D49B"/>
<stop offset="0.5605" stop-color="#F8CC87"/>
<stop offset="0.7537" stop-color="#F7C16A"/>
<stop offset="0.9467" stop-color="#F5B345"/>
<stop offset="1" stop-color="#F4AE39"/>
</linearGradient>
<linearGradient id="paint32_linear_1_790" x1="91.6838" y1="57.2457" x2="147.09" y2="72.1024" gradientUnits="userSpaceOnUse">
<stop stop-color="#F7C374"/>
<stop offset="1" stop-color="#F3A31F"/>
</linearGradient>
<linearGradient id="paint33_linear_1_790" x1="117.583" y1="43.1464" x2="131.716" y2="46.9361" gradientUnits="userSpaceOnUse">
<stop stop-color="#C1D5F4"/>
<stop offset="1" stop-color="#3F81D9"/>
</linearGradient>
<linearGradient id="paint34_linear_1_790" x1="105.623" y1="53.0328" x2="128.663" y2="92.9697" gradientUnits="userSpaceOnUse">
<stop stop-color="#C1D5F4"/>
<stop offset="1" stop-color="#2E76D6"/>
</linearGradient>
<linearGradient id="paint35_linear_1_790" x1="56.4964" y1="20.9623" x2="67.9913" y2="27.6043" gradientUnits="userSpaceOnUse">
<stop stop-color="#C1D5F4"/>
<stop offset="1" stop-color="#3F81D9"/>
</linearGradient>
<linearGradient id="paint36_linear_1_790" x1="63.7827" y1="15.0884" x2="63.7827" y2="32.6838" gradientUnits="userSpaceOnUse">
<stop stop-color="#44BBFE"/>
<stop offset="1" stop-color="#1E78FE"/>
</linearGradient>
<linearGradient id="paint37_linear_1_790" x1="43.24" y1="22.4843" x2="59.5331" y2="31.8987" gradientUnits="userSpaceOnUse">
<stop stop-color="#C1D5F4"/>
<stop offset="1" stop-color="#3F81D9"/>
</linearGradient>
<linearGradient id="paint38_linear_1_790" x1="50.9642" y1="18.7231" x2="50.9642" y2="32.8156" gradientUnits="userSpaceOnUse">
<stop stop-color="#44BBFE"/>
<stop offset="1" stop-color="#1E78FE"/>
</linearGradient>
<linearGradient id="paint39_linear_1_790" x1="50.2111" y1="38.8927" x2="74.1731" y2="52.7381" gradientUnits="userSpaceOnUse">
<stop stop-color="#C1D5F4"/>
<stop offset="1" stop-color="#2E76D6"/>
</linearGradient>
<linearGradient id="paint40_linear_1_790" x1="62.1751" y1="30.0737" x2="62.1751" y2="61.55" gradientUnits="userSpaceOnUse">
<stop stop-color="#44BBFE"/>
<stop offset="1" stop-color="#1E78FE"/>
</linearGradient>
<linearGradient id="paint41_linear_1_790" x1="42.4549" y1="32.9288" x2="80.9788" y2="55.1881" gradientUnits="userSpaceOnUse">
<stop stop-color="#FADBAC"/>
<stop offset="0.1738" stop-color="#FAD9A8"/>
<stop offset="0.354" stop-color="#F9D49B"/>
<stop offset="0.537" stop-color="#F8CC87"/>
<stop offset="0.7221" stop-color="#F6C16A"/>
<stop offset="0.907" stop-color="#F4B245"/>
<stop offset="1" stop-color="#F3AA2F"/>
</linearGradient>
<linearGradient id="paint42_linear_1_790" x1="44.7446" y1="27.2496" x2="74.2515" y2="44.2986" gradientUnits="userSpaceOnUse">
<stop stop-color="#FADBAC"/>
<stop offset="0.1814" stop-color="#FAD9A8"/>
<stop offset="0.3695" stop-color="#F9D49B"/>
<stop offset="0.5605" stop-color="#F8CC87"/>
<stop offset="0.7537" stop-color="#F7C16A"/>
<stop offset="0.9467" stop-color="#F5B345"/>
<stop offset="1" stop-color="#F4AE39"/>
</linearGradient>
<linearGradient id="paint43_linear_1_790" x1="44.2326" y1="45.26" x2="77.4766" y2="36.346" gradientUnits="userSpaceOnUse">
<stop stop-color="#F7C374"/>
<stop offset="1" stop-color="#F3A31F"/>
</linearGradient>
<linearGradient id="paint44_linear_1_790" x1="53.4577" y1="30.1716" x2="61.9377" y2="27.8977" gradientUnits="userSpaceOnUse">
<stop stop-color="#C1D5F4"/>
<stop offset="1" stop-color="#3F81D9"/>
</linearGradient>
<linearGradient id="paint45_linear_1_790" x1="58.2041" y1="26.7842" x2="58.2041" y2="32.3219" gradientUnits="userSpaceOnUse">
<stop stop-color="#44BBFE"/>
<stop offset="1" stop-color="#1E78FE"/>
</linearGradient>
<linearGradient id="paint46_linear_1_790" x1="50.2111" y1="38.8927" x2="74.1731" y2="52.7381" gradientUnits="userSpaceOnUse">
<stop stop-color="#C1D5F4"/>
<stop offset="1" stop-color="#2E76D6"/>
</linearGradient>
<linearGradient id="paint47_linear_1_790" x1="62.1751" y1="30.0737" x2="62.1751" y2="61.55" gradientUnits="userSpaceOnUse">
<stop stop-color="#44BBFE"/>
<stop offset="1" stop-color="#1E78FE"/>
</linearGradient>
<clipPath id="clip0_1_790">
<rect width="180" height="265" fill="white"/>
</clipPath>
</defs>
</svg>
